<svg id="Laag_1" data-name="Laag 1" xmlns="http://www.w3.org/2000/svg" viewBox="0 0 420.71 277.94"><defs><style>.cls-1{fill:#3c3c3b;}.cls-2{fill:#e63312;}.cls-3{fill:#cd300e;}.cls-4,.cls-6{fill:#fff;}.cls-4,.cls-5{fill-rule:evenodd;}.cls-5{fill:#e5e5e5;}</style></defs><rect class="cls-1" y="195.8" width="420.71" height="82.14"/><path class="cls-1" d="M148.46,102.31l58-91.66h45V94.11h17.87V124.6H251.47V161H215.1V124.6H148.46Zm66.64-8.2V60.48a134.5,134.5,0,0,1,1.26-16.82h-.42s-3.15,9.25-7.36,15.55l-22.7,34.48v.42Z"/><path class="cls-1" d="M289.74,10.65h53.39c47.31,0,77.58,27.54,77.58,74.84S390.44,161,343.13,161H289.74Zm51.92,118.78c25.44,0,41-15.14,41-43.94,0-28.59-16.19-43.3-41-43.3H326.53v87.24Z"/><path class="cls-2" d="M.33,11.4,62,0V9.23L.33,20.62ZM.44,26.86V68.33A110.16,110.16,0,0,0,62,160.84V15.48Z"/><path class="cls-3" d="M123.65,20.62,62,9.23V0l61.66,11.4Zm-.1,34.8V26.86L62,15.48V35.07l.54.31c4.88,3.07,8,7.86,8.33,15.08A30.12,30.12,0,0,1,67,66.39c-.68,1.25-2,2.79-1.43,4.73a3.5,3.5,0,0,0,4.66,2.16c1-.42,1.88-1.64,2.77-2.52,4.27-4.24,9.53-8,17.07-8.94A19.49,19.49,0,0,1,99.24,63a19.86,19.86,0,0,1,10.44,10.58,27.45,27.45,0,0,1,1.14,17.73,34.13,34.13,0,0,1-7.61,13.58A55.62,55.62,0,0,1,62,124.26v36.58a110.19,110.19,0,0,0,61.56-92.51Z"/><path class="cls-4" d="M110.82,91.27a27.45,27.45,0,0,0-1.14-17.73A19.86,19.86,0,0,0,99.24,63a19.49,19.49,0,0,0-9.15-1.14c-7.54.92-12.8,4.7-17.07,8.94-.89.88-1.76,2.1-2.77,2.52a3.5,3.5,0,0,1-4.66-2.16c-.59-1.94.75-3.48,1.43-4.73a30.12,30.12,0,0,0,3.84-15.93c-.35-7.22-3.45-12-8.33-15.08a22,22,0,0,0-12.67-3.33,26.89,26.89,0,0,0-4.69.54c-9.83,2.18-15.87,8.65-20.35,16.28a55.58,55.58,0,0,0-6.19,15.07,60.94,60.94,0,0,0-1.29,19.22,54.75,54.75,0,0,0,12.17,29.31c.76.93,1.58,1.82,2.47,2.77a12.32,12.32,0,0,0,2.72,2.51,56.25,56.25,0,0,0,25.61,6.51,53.46,53.46,0,0,0,17.82-2.7,54.24,54.24,0,0,0,25.08-16.71A34.13,34.13,0,0,0,110.82,91.27Z"/><path class="cls-5" d="M99.24,63a19.49,19.49,0,0,0-9.15-1.15c-7.54.92-12.8,4.71-17.07,9-.89.88-1.76,2.1-2.77,2.51a3.49,3.49,0,0,1-4.66-2.16c-.59-1.94.75-3.47,1.43-4.73a30.06,30.06,0,0,0,3.84-15.92c-.35-7.22-3.45-12-8.33-15.08L62,35.08v89.2a55.73,55.73,0,0,0,41.22-19.41,34.27,34.27,0,0,0,7.61-13.58,27.45,27.45,0,0,0-1.14-17.73C107.53,68.87,104.18,65,99.24,63Z"/><path class="cls-6" d="M51,249.66H37.26l-2.65,9.25H23.51l15-44.09H49.84l15,44.09H53.72ZM44.1,224.87s-1,4.81-1.79,7.59L39.78,241h8.7L46,232.46c-.8-2.78-1.79-7.59-1.79-7.59Z"/><path class="cls-6" d="M89.67,214.08c11.29,0,17,5.86,17,5.86L101.45,228A17.54,17.54,0,0,0,90.72,224c-9.25,0-13,5.92-13,12.46,0,8.38,5.8,13.38,12.64,13.38a15.07,15.07,0,0,0,8.94-3.21v-3.39H93.06V234h15.79v24.91h-9v-1.23c0-.93.06-1.85.06-1.85h-.13a18.26,18.26,0,0,1-11.59,3.82c-11.28,0-21.64-8.45-21.64-22.87C66.55,224,76.23,214.08,89.67,214.08Z"/><path class="cls-6" d="M131.11,214.82h27v9.25H141.9v9.25h13.45v9.25H141.9v16.34H131.11Z"/><path class="cls-6" d="M185.87,249.66H172.12l-2.65,9.25h-11.1l15-44.09H184.7l15,44.09h-11.1ZM179,224.87s-1,4.81-1.79,7.59L174.65,241h8.69l-2.46-8.57c-.8-2.78-1.79-7.59-1.79-7.59Z"/><path class="cls-6" d="M207,245.16s5,4.56,10.55,4.56c2.22,0,4.62-.86,4.62-3.51,0-5.24-19.85-5.06-19.85-18.62,0-8.14,6.84-13.51,15.6-13.51,9.49,0,14.18,5,14.18,5l-4.56,8.82s-4.44-3.89-9.74-3.89c-2.22,0-4.69,1-4.69,3.45C213.13,233,233,232,233,246c0,7.34-5.61,13.69-15.53,13.69a22.78,22.78,0,0,1-16.1-6.29Z"/><path class="cls-6" d="M240.39,214.82h10.79v17.64h16V214.82H278v44.09H267.21V241.65h-16v17.26H240.39Z"/><path class="cls-6" d="M288.36,214.82h10.79v44.09H288.36Z"/><path class="cls-6" d="M329.55,214.08c13.32,0,23.07,9.87,23.07,22.51a23.07,23.07,0,0,1-46.13,0C306.49,224,316.24,214.08,329.55,214.08Zm0,35.71c6.6,0,11.9-5.68,11.9-13.2,0-7.21-5.3-12.64-11.9-12.64s-11.9,5.43-11.9,12.64C317.65,244.11,323,249.79,329.55,249.79Z"/><path class="cls-6" d="M360,214.82h10.91l12.21,20.6a78.33,78.33,0,0,1,3.7,7.52h.12s-.49-4.75-.49-7.52v-20.6H397.2v44.09H386.35l-12.27-20.53a78.33,78.33,0,0,1-3.7-7.52h-.12s.49,4.74.49,7.52v20.53H360Z"/></svg>