<svg id="Laag_1" data-name="Laag 1" xmlns="http://www.w3.org/2000/svg" viewBox="0 0 627.93 59.48"><defs><style>.cls-1{fill:#3c3c3b;}.cls-2{fill:#e63312;}.cls-3{fill:#cd300e;}.cls-4{fill:#fff;}.cls-4,.cls-5{fill-rule:evenodd;}.cls-5{fill:#e5e5e5;}</style></defs><path class="cls-1" d="M0,31.72,15.5,7.23h12v22.3h4.77v8.14H27.52v9.71H17.8V37.67H0Zm17.8-2.19v-9a35.5,35.5,0,0,1,.34-4.49H18a21.9,21.9,0,0,1-2,4.16L10,29.42v.11Z"/><path class="cls-1" d="M37.73,7.23H52c12.64,0,20.73,7.36,20.73,20S64.63,47.38,52,47.38H37.73ZM51.6,39c6.8,0,10.95-4,10.95-11.73S58.23,15.66,51.6,15.66h-4V39Z"/><path class="cls-1" d="M179.69,39H167.16l-2.41,8.42H154.64L168.29,7.23h10.33l13.64,40.15h-10.1ZM173.4,16.39s-.9,4.38-1.63,6.9l-2.3,7.81h7.91l-2.24-7.81c-.73-2.52-1.63-6.9-1.63-6.9Z"/><path class="cls-1" d="M213.21,6.56c10.27,0,15.44,5.34,15.44,5.34l-4.72,7.35a16,16,0,0,0-9.77-3.7c-8.42,0-11.85,5.39-11.85,11.34,0,7.64,5.28,12.18,11.51,12.18A13.77,13.77,0,0,0,222,36.15V33.07h-5.68V24.7h14.38V47.38h-8.2V46.26c0-.84.06-1.68.06-1.68h-.11a16.66,16.66,0,0,1-10.56,3.48c-10.28,0-19.71-7.69-19.71-20.83C192.15,15.55,201,6.56,213.21,6.56Z"/><rect class="cls-1" x="82.17" width="1.07" height="59.35"/><rect class="cls-1" x="144.95" width="1.07" height="59.35"/><path class="cls-2" d="M91.16,4.21,114,0V3.41L91.16,7.63Zm0,5.72V25.27A40.72,40.72,0,0,0,114,59.48V5.73Z"/><path class="cls-3" d="M136.77,7.63,114,3.41V0l22.81,4.21Zm0,12.86V9.93L114,5.73V13l.2.11a6.52,6.52,0,0,1,3.08,5.58,11,11,0,0,1-1.42,5.89c-.25.47-.74,1-.53,1.75a1.29,1.29,0,0,0,1.73.8,4,4,0,0,0,1-.93,10.56,10.56,0,0,1,6.32-3.31,7.2,7.2,0,0,1,3.38.43,7.31,7.31,0,0,1,3.86,3.91,10.11,10.11,0,0,1,.42,6.55,12.75,12.75,0,0,1-2.81,5A20.6,20.6,0,0,1,114,46V59.48a40.73,40.73,0,0,0,22.77-34.21Z"/><path class="cls-4" d="M132,33.75a10.11,10.11,0,0,0-.42-6.55,7.31,7.31,0,0,0-3.86-3.91,7.2,7.2,0,0,0-3.38-.43A10.56,10.56,0,0,0,118,26.17a4,4,0,0,1-1,.93,1.29,1.29,0,0,1-1.73-.8c-.21-.72.28-1.28.53-1.75a11,11,0,0,0,1.42-5.89,6.52,6.52,0,0,0-3.08-5.58,8.21,8.21,0,0,0-4.68-1.23,10.8,10.8,0,0,0-1.74.2c-3.63.81-5.87,3.2-7.52,6a20.35,20.35,0,0,0-2.29,5.58,22.48,22.48,0,0,0-.48,7.1A20.25,20.25,0,0,0,102,41.59c.28.35.59.68.91,1a4.9,4.9,0,0,0,1,.93,20.8,20.8,0,0,0,9.47,2.4,19.84,19.84,0,0,0,6.59-1,20.17,20.17,0,0,0,9.28-6.18A12.75,12.75,0,0,0,132,33.75Z"/><path class="cls-5" d="M127.74,23.29a7.2,7.2,0,0,0-3.38-.42A10.56,10.56,0,0,0,118,26.18a4.2,4.2,0,0,1-1,.93,1.31,1.31,0,0,1-1.73-.8c-.21-.72.28-1.29.53-1.75a11,11,0,0,0,1.42-5.89,6.52,6.52,0,0,0-3.08-5.58L114,13V46a20.6,20.6,0,0,0,15.25-7.18,12.71,12.71,0,0,0,2.81-5,10.14,10.14,0,0,0-.42-6.56A7.35,7.35,0,0,0,127.74,23.29Z"/><path class="cls-1" d="M244,7.24h24.59v8.42H253.86v8.42H266.1V32.5H253.86V47.38H244Z"/><path class="cls-1" d="M292.77,39H280.25l-2.42,8.42H267.72L281.37,7.24H291.7l13.65,40.14H295.24Zm-6.29-22.57s-.9,4.38-1.63,6.9l-2.3,7.81h7.92l-2.25-7.81c-.73-2.52-1.63-6.9-1.63-6.9Z"/><path class="cls-1" d="M310.9,34.86S315.45,39,320.51,39c2,0,4.21-.79,4.21-3.2,0-4.78-18.08-4.61-18.08-17,0-7.41,6.23-12.3,14.2-12.3,8.65,0,12.92,4.55,12.92,4.55l-4.16,8s-4-3.54-8.87-3.54c-2,0-4.27.9-4.27,3.15,0,5.05,18.09,4.15,18.09,16.84,0,6.69-5.12,12.47-14.16,12.47a20.71,20.71,0,0,1-14.65-5.73Z"/><path class="cls-1" d="M340.16,7.24H350v16h14.6v-16h9.82V47.38h-9.82V31.66H350V47.38h-9.83Z"/><path class="cls-1" d="M382.72,7.24h9.83V47.38h-9.83Z"/><path class="cls-1" d="M419.11,6.56c12.13,0,21,9,21,20.5a21,21,0,0,1-42,0C398.11,15.55,407,6.56,419.11,6.56Zm0,32.51c6,0,10.83-5.16,10.83-12,0-6.57-4.82-11.51-10.83-11.51s-10.84,4.94-10.84,11.51C408.27,33.91,413.1,39.07,419.11,39.07Z"/><path class="cls-1" d="M445.66,7.24h9.94L466.72,26a70.06,70.06,0,0,1,3.37,6.85h.11s-.44-4.32-.44-6.85V7.24h9.82V47.38H469.7L458.52,28.69a71.52,71.52,0,0,1-3.36-6.85H455s.45,4.32.45,6.85V47.38h-9.83Z"/><path class="cls-1" d="M486.09,38.18h9.21v9.2h-9.21Z"/><path class="cls-1" d="M519.84,6.56c9.94,0,15,5.67,15,5.67l-4.55,7.42s-4.49-4.1-10.05-4.1C512.6,15.55,509,21.22,509,27c0,6,3.93,12.07,11.34,12.07,6.06,0,10.67-4.94,10.67-4.94l5,7.19a22,22,0,0,1-16.17,6.74c-12.58,0-21.06-8.93-21.06-20.83C498.78,15.55,507.77,6.56,519.84,6.56Z"/><path class="cls-1" d="M558.87,6.56c12.12,0,21,9,21,20.5a21,21,0,0,1-42,0C537.86,15.55,546.74,6.56,558.87,6.56Zm0,32.51c6,0,10.83-5.16,10.83-12,0-6.57-4.83-11.51-10.83-11.51S548,20.49,548,27.06C548,33.91,552.86,39.07,558.87,39.07Z"/><path class="cls-1" d="M587.5,7.24h10.67l5.84,17c.9,2.59,2,6.63,2,6.63h.11s1.13-4,2-6.63l5.84-17h10.67l3.25,40.14h-9.82L616.87,29.3a60.85,60.85,0,0,1,0-6.73h-.11s-1.35,4.21-2.25,6.73L610.3,40.93h-8.42L597.67,29.3c-.9-2.52-2.25-6.73-2.25-6.73h-.11a60.85,60.85,0,0,1,0,6.73l-1.24,18.08h-9.88Z"/></svg>