<?xml version="1.0" encoding="utf-8"?>
<!-- Generator: Adobe Illustrator 19.2.1, SVG Export Plug-In . SVG Version: 6.00 Build 0)  -->
<svg version="1.1" id="Laag_1" xmlns="http://www.w3.org/2000/svg" xmlns:xlink="http://www.w3.org/1999/xlink" x="0px" y="0px"
	 viewBox="0 0 310 104" style="enable-background:new 0 0 310 104;" xml:space="preserve">
<style type="text/css">
	.st0{fill:#FFFFFF;}
</style>
<path class="st0" d="M101.2,54.7c-3.5,3.8-8.1,4.8-11.4,4.8c-9.1,0-14.1-5.7-14.1-12.7c0-7.2,5.6-12.9,13.6-12.9
	c6.8,0,13.3,4.7,13.3,14.5H82.8c0.1,3.1,3,5.3,7.5,5.3c2.5,0,5.1-1.3,6.8-2.9L101.2,54.7z M82.9,44.1h12.3c-0.5-3.2-3.7-4.4-6.1-4.4
	C86.8,39.7,83.8,40.8,82.9,44.1z M105.3,34.5h7.1v3.4c2.1-2.9,4.6-3.9,7.6-3.9c6.9,0,8.8,5.5,8.8,11.7V59h-7.1V45.8
	c0-3.4-1.2-6-4.5-6c-3.3,0-4.7,2.6-4.7,6V59h-7.1V34.5z M146.2,59h-7.1l-10.3-24.6h7.8l6,16.6l6-16.6h7.8L146.2,59z M158.3,59V34.5
	h7.1V59H158.3z M173.1,50.3c0.7,2.8,3.2,3.7,5.2,3.7c1.6,0,3.2-0.6,3.2-1.9c0-0.8-0.5-1.4-1.8-1.9l-4.3-1.8c-5.8-2.1-6.1-5.9-6.1-7
	c0-4.9,4.4-7.5,9.6-7.5c2.8,0,6.6,0.8,8.9,5.2l-5.5,2.5c-0.6-2-2.4-2.3-3.5-2.3c-1.3,0-2.7,0.8-2.7,2c0,1.1,1.1,1.6,2.3,2.1l3.7,1.4
	c5.8,1.7,6.3,5.5,6.3,7.1c0,5-4.6,7.6-10.1,7.6c-3.6,0-8.6-1.1-10.3-6.3L173.1,50.3z M191.1,59V34.5h7.1V59H191.1z M214.5,33.9
	c2.5,0,5.8,0.5,10.1,3.6l-3.3,5.2c-2.4-2.2-5.2-2.4-6.5-2.4c-4.2,0-6.9,2.6-6.9,6.4c0,3.7,2.8,6.4,6.9,6.4c1.2,0,4.1-0.3,6.5-2.4
	l3.3,5.2c-4.2,3.1-7.5,3.6-10.1,3.6c-8.4,0-13.7-5.5-13.7-12.8S206.1,33.9,214.5,33.9z M102.6,63.1H75.5v4.7h27.1V63.1z M230.7,51.4
	c2.1,0,3.8,1.7,3.8,3.8c0,2.1-1.7,3.8-3.8,3.8c-2.1,0-3.8-1.6-3.8-3.8C226.9,53.1,228.6,51.4,230.7,51.4z"/>
</svg>
