<?xml version="1.0" encoding="utf-8"?>
<!-- Generator: Adobe Illustrator 21.0.2, SVG Export Plug-In . SVG Version: 6.00 Build 0)  -->
<svg version="1.1" id="Laag_1" xmlns="http://www.w3.org/2000/svg" xmlns:xlink="http://www.w3.org/1999/xlink" x="0px" y="0px"
	 viewBox="0 0 280.9 46.1" style="enable-background:new 0 0 280.9 46.1;" xml:space="preserve">
<style type="text/css">
	.st0{fill:#FFFFFF;}
</style>
<path class="st0" d="M142.7,0.9h-14.1l-10.9,29.8L107,0.9H93l18.5,44.2h12.8L142.7,0.9z M146.1,45.2h12.9V0.9h-12.9V45.2z
	 M163.4,34.8c3,9.2,12,11.3,18.5,11.3c9.7,0,18.1-4.7,18.1-13.7c0-2.9-0.9-9.7-11.4-12.8l-6.6-2.6c-2.2-0.9-4.1-1.9-4.1-3.8
	c0-2.2,2.5-3.6,4.9-3.6c2,0,5.2,0.7,6.3,4.2l9.9-4.6c-4.1-7.9-10.9-9.3-16-9.3c-9.5,0-17.3,4.7-17.3,13.5c0,2,0.5,9,11,12.7l7.8,3.3
	c2.4,0.9,3.3,1.9,3.3,3.4c0,2.2-2.9,3.4-5.8,3.4c-3.5,0-8-1.6-9.3-6.6L163.4,34.8z M205.2,45.2h12.8V0.9h-12.8V45.2z M267.3,38.4
	c0,3.8,3,6.8,6.8,6.8c3.8,0,6.9-3,6.9-6.8c0-3.8-3.1-6.9-6.9-6.9C270.3,31.6,267.3,34.6,267.3,38.4 M247.5,35.7
	c-7,0-12.6-5.7-12.6-12.6s5.7-12.6,12.6-12.6c3.5,0,6.6,1.4,8.9,3.7l7.4-7.4c-4.2-4.2-9.9-6.8-16.3-6.8c-12.7,0-23.1,10.3-23.1,23.1
	s10.3,23.1,23.1,23.1c6.4,0,12.1-2.6,16.3-6.8l-7.4-7.4C254.1,34.3,251,35.7,247.5,35.7 M31.9,32.1c-2.3,2.2-5.4,3.6-8.8,3.6
	c-5.4,0-10-3.4-11.8-8.1h34.4c0.3-1.5,0.4-3,0.4-4.5C46.1,10.3,35.8,0,23.1,0C10.3,0,0,10.3,0,23.1s10.3,23.1,23.1,23.1
	c8.4,0,15.8-4.5,19.8-11.3L31.9,32.1z M23.1,10.4c5.4,0,10,3.4,11.8,8.1H11.3C13.1,13.8,17.7,10.4,23.1,10.4 M93,23.1v22.1H80.1
	V22.4c0-6.1-2.3-10.8-8.2-10.8c-4,0-7.5,1-7.5,1v32.6H51.6V0.9h12.8v2.6c0,0,6.3-2.6,12.9-2.6l0,0C89.7,1,93,11.9,93,23.1z"/>
</svg>
