<svg id="Layer_1" data-name="Layer 1" xmlns="http://www.w3.org/2000/svg" viewBox="0 0 101 101"><path d="M94.73,52.43l-6.26-9.07A10.12,10.12,0,0,0,80.15,39H64V26.5A1.5,1.5,0,0,0,62.5,25H8.5A1.5,1.5,0,0,0,7,26.5v47A1.5,1.5,0,0,0,8.5,75H20.89A7.62,7.62,0,0,0,36,75H69.48a7.63,7.63,0,0,0,15.09,0H93.5A1.5,1.5,0,0,0,95,73.5V53.28A1.46,1.46,0,0,0,94.73,52.43ZM80.15,42A7.1,7.1,0,0,1,86,45.07L90.79,52H64V42ZM28.44,78.5a4.64,4.64,0,1,1,4.62-4.63A4.64,4.64,0,0,1,28.44,78.5Zm0-12.27A7.65,7.65,0,0,0,21,72H10V28H61V72H35.82A7.64,7.64,0,0,0,28.44,66.23ZM77,78.5a4.64,4.64,0,1,1,4.64-4.63A4.64,4.64,0,0,1,77,78.5Zm7.4-6.5a7.62,7.62,0,0,0-14.79,0H64V55H92V72Z"/></svg>