<svg id="Layer_1" data-name="Layer 1" xmlns="http://www.w3.org/2000/svg" viewBox="0 0 101 101"><path d="M93,50.52l-19.27-6L62.5,33.9A10.65,10.65,0,0,0,55.18,31h-22c-9.72,0-14.54,10.23-15.8,13.41L9,46.6a8,8,0,0,0-6,7.71v7.82A5.87,5.87,0,0,0,8.87,68h5a8.72,8.72,0,0,0,17.26,0H65.47a8.72,8.72,0,0,0,17.26,0h9.4A5.87,5.87,0,0,0,98,62.13V57.34A7.12,7.12,0,0,0,93,50.52ZM33.21,34h22a7.63,7.63,0,0,1,5.26,2.09L68.85,44h-48C22.58,40.45,26.59,34,33.21,34ZM22.51,72.5a5.73,5.73,0,1,1,5.72-5.72A5.73,5.73,0,0,1,22.51,72.5Zm51.6,0a5.73,5.73,0,1,1,5.72-5.72A5.73,5.73,0,0,1,74.11,72.5ZM95,62.13A2.88,2.88,0,0,1,92.13,65H82.64a8.72,8.72,0,0,0-17.08,0H31A8.72,8.72,0,0,0,14,65H8.87A2.88,2.88,0,0,1,6,62.13V54.31A5,5,0,0,1,9.72,49.5l8.56-2.21A1.55,1.55,0,0,0,19.39,47H72.06a1.45,1.45,0,0,0,.44.24l19.6,6.15a4.12,4.12,0,0,1,2.9,4Z"/></svg>