<svg id="Layer_1" data-name="Layer 1" xmlns="http://www.w3.org/2000/svg" viewBox="0 0 101 101"><path d="M50.88,54.59A31.94,31.94,0,0,0,19,86.5a1.5,1.5,0,0,0,1.5,1.5h60.8a1.5,1.5,0,0,0,1.5-1.5A31.94,31.94,0,0,0,50.88,54.59ZM22,85a28.9,28.9,0,0,1,57.73,0Z"/><path d="M50.35,14.67A18.44,18.44,0,1,0,68.78,33.1,18.45,18.45,0,0,0,50.35,14.67Zm0,33.87A15.44,15.44,0,1,1,65.78,33.1,15.45,15.45,0,0,1,50.35,48.54Z"/><path d="M27.68,43a1.5,1.5,0,0,0,1.5-1.5V25a1.27,1.27,0,0,0,.13-.22,22.61,22.61,0,0,1,42-.16V41.52A22.45,22.45,0,0,1,66.43,49a1.5,1.5,0,0,0,0,2.12,1.48,1.48,0,0,0,1,.43,1.51,1.51,0,0,0,1.07-.44A25.57,25.57,0,0,0,74,43h.72a10,10,0,0,0,0-20h-.82a25.59,25.59,0,0,0-47,0h-1a10,10,0,0,0,0,20ZM74.32,26h.36a7,7,0,0,1,0,14h-.36Zm-55.5,7a7,7,0,0,1,7-7h.36V40h-.36A7,7,0,0,1,18.82,33Z"/></svg>