<svg id="Layer_1" data-name="Layer 1" xmlns="http://www.w3.org/2000/svg" viewBox="0 0 101 101"><path d="M75.5,59h-51a1.5,1.5,0,0,0,0,3h51a1.5,1.5,0,0,0,0-3Z"/><path d="M75.5,49h-51a1.5,1.5,0,0,0,0,3h51a1.5,1.5,0,0,0,0-3Z"/><path d="M100.32,47.3A13.72,13.72,0,0,0,87,36V29.5A1.5,1.5,0,0,0,85.5,28h-70A1.5,1.5,0,0,0,14,29.5V36h-.42a13,13,0,0,0-9.9,4.59A13.75,13.75,0,0,0,.58,51.7,13.52,13.52,0,0,0,13.91,63H14v8.5A1.5,1.5,0,0,0,15.5,73h70A1.5,1.5,0,0,0,87,71.5V63a13.5,13.5,0,0,0,13.32-15.7ZM13.91,60A10.51,10.51,0,0,1,3.54,51.24,10.76,10.76,0,0,1,6,42.55,10,10,0,0,1,13.58,39H14V60ZM84,70H17V31H84ZM95,56.31A10.47,10.47,0,0,1,87,60V39a10.73,10.73,0,0,1,10.36,8.76A10.41,10.41,0,0,1,95,56.31Z"/></svg>