<svg id="Layer_1" data-name="Layer 1" xmlns="http://www.w3.org/2000/svg" viewBox="0 0 101 101"><path d="M76.21,9H24.79A3.79,3.79,0,0,0,21,12.79V89.21A3.79,3.79,0,0,0,24.79,93H76.21A3.79,3.79,0,0,0,80,89.21V12.79A3.79,3.79,0,0,0,76.21,9ZM24.79,12H76.21a.8.8,0,0,1,.79.79V75H24V12.79A.79.79,0,0,1,24.79,12ZM76.21,90H24.79a.8.8,0,0,1-.79-.79V78H77V89.21A.8.8,0,0,1,76.21,90Z"/><path d="M42.5,21h16a1.5,1.5,0,0,0,0-3h-16a1.5,1.5,0,0,0,0,3Z"/><path d="M50.49,81.6A2.5,2.5,0,1,0,53,84.09,2.49,2.49,0,0,0,50.49,81.6Z"/><path d="M35.43,63a1.5,1.5,0,0,0,1.43,1H64.14a1.5,1.5,0,0,0,1.43-1l5.86-18a1.47,1.47,0,0,0-.22-1.34A1.49,1.49,0,0,0,70,43H60.81L57,32.27a1.5,1.5,0,1,0-2.83,1L57.63,43H43.58L47,33.26a1.51,1.51,0,0,0-.92-1.91,1.49,1.49,0,0,0-1.91.92L40.4,43H31a1.49,1.49,0,0,0-1.21.62A1.47,1.47,0,0,0,29.57,45Zm3.91-17-1.15,3.26a1.5,1.5,0,0,0,2.83,1L42.52,46H58.68l1.51,4.26a1.49,1.49,0,0,0,1.41,1,1.42,1.42,0,0,0,.5-.08A1.51,1.51,0,0,0,63,49.26L61.87,46h6.06L63.05,61H38L33.07,46Z"/></svg>