<svg id="Layer_1" data-name="Layer 1" xmlns="http://www.w3.org/2000/svg" viewBox="0 0 101 101"><path d="M91.05,55.07l-9-4,0-22.25a1.5,1.5,0,0,0-.17-1.07h0l0-.07-.08-.09a1.52,1.52,0,0,0-.38-.38L62,14.37l-.13-.09L44.73,2.84a1.53,1.53,0,0,0-1.67,0L6.86,27a1.51,1.51,0,0,0-.65.55A1.47,1.47,0,0,0,6,28.7V62.44a1.48,1.48,0,0,0,.67,1.25L43.39,88.14a1.55,1.55,0,0,0,.83.25,1.61,1.61,0,0,0,.84-.25L61,77.52a13.17,13.17,0,0,0,7.34,8.79l7,3.16a1.42,1.42,0,0,0,1.23,0l7-3.16a13.19,13.19,0,0,0,7.7-11L92,56.5A1.52,1.52,0,0,0,91.05,55.07Zm-30.21,0a1.52,1.52,0,0,0-.9,1.43l.63,17.69-15.07,10V53.72L79,31.38l0,18.43-2.48-1.09a1.5,1.5,0,0,0-1.21,0Zm17-26.53L44.18,51,27.62,40l33.5-22.59Zm-34-22.65,14.53,9.69L24.92,38.17l-14.74-9.8ZM9,31.18l33.5,22.3V83.94L9,61.64ZM88.29,75.11a10.14,10.14,0,0,1-6,8.46L76,86.46l-6.4-2.89a10.13,10.13,0,0,1-5.95-8.39L63,57.41l13-5.68,13,5.68Z"/></svg>