<svg id="Layer_1" data-name="Layer 1" xmlns="http://www.w3.org/2000/svg" viewBox="0 0 101 101"><path d="M87.18,23H13.82A6.8,6.8,0,0,0,7,29.76V72.24A6.8,6.8,0,0,0,13.82,79H87.18A6.8,6.8,0,0,0,94,72.24V29.76A6.8,6.8,0,0,0,87.18,23ZM13.82,26H87.18A3.79,3.79,0,0,1,91,29.76V32H10V29.76A3.79,3.79,0,0,1,13.82,26ZM91,42H10V35H91ZM87.18,76H13.82A3.8,3.8,0,0,1,10,72.24V45H91V72.24A3.79,3.79,0,0,1,87.18,76Z"/><path d="M20.08,60.7A4.93,4.93,0,1,0,25,65.63,4.93,4.93,0,0,0,20.08,60.7Zm0,6.85A1.93,1.93,0,1,1,22,65.63,1.92,1.92,0,0,1,20.08,67.55Z"/><path d="M69.5,64h-39a1.5,1.5,0,0,0,0,3h39a1.5,1.5,0,0,0,0-3Z"/></svg>